<svg xmlns="http://www.w3.org/2000/svg" xmlns:xlink="http://www.w3.org/1999/xlink" viewBox="0 0 388.98 16.8"><defs><style>.cls-1{fill:url(#Dégradé_sans_nom_8);}</style><linearGradient id="Dégradé_sans_nom_8" x1="-262.4" y1="65.05" x2="126.63" y2="65.05" gradientTransform="translate(125.64 71.14) rotate(-179.15)" gradientUnits="userSpaceOnUse"><stop offset="0" stop-color="#379547"/><stop offset="1" stop-color="#b4d382"/></linearGradient></defs><g id="Calque_2" data-name="Calque 2"><g id="Calque_1-2" data-name="Calque 1"><path class="cls-1" d="M.06,6.57c2.29-.7,4.73-1.86,7-.91,2.6,1.09,5.17.67,7.75.94A3.48,3.48,0,0,0,16,6.23c-.37-.28-.73-.57-1.12-.82a6.5,6.5,0,0,0-1.18-.65,4.07,4.07,0,0,0-1.34-.37c-3-.08-6-.09-9-.21-.56,0-1.07-.76-1.65-.65S.58,3.12,0,2.92V2.61a4.49,4.49,0,0,1,1.11-.27q7.62.11,15.24.25c.27,0,.66,0,.8.14.9,1.07,2.11.78,3.23.8,3.56.07,7.12.13,10.68.14a6.82,6.82,0,0,0,1.6-.53A4.58,4.58,0,0,1,34,2.86c3.72,0,7.44.08,11.16.06a6.74,6.74,0,0,0,1.69-.57,5,5,0,0,1,1.25-.26c2.44,0,4.88.05,7.31,0a5.49,5.49,0,0,0,1.48-.53,4.16,4.16,0,0,1,1.22-.32q16.66.22,33.35.5c.48,0,1,.41,1.44.59a3.93,3.93,0,0,0,1.23.32c7.36.08,14.71.12,22.07.23,1.08,0,2.1.28,3-.66.2-.21.77-.09,1.16-.08,5.52.06,11,.15,16.56.19,3.8,0,7.6,0,11.4-.07a3.8,3.8,0,0,0,1-.22,10.17,10.17,0,0,1,2-.54c1.71-.08,3.43,0,5.15,0,.92,0,1.9.2,2.67-.68.21-.24.83-.17,1.26-.16,6.24.06,12.48.15,18.72.17a7.1,7.1,0,0,0,1.92-.6,3.78,3.78,0,0,1,1-.21q19.8.27,39.59.6c.42,0,.82.36,1.24.5a5.83,5.83,0,0,0,1.56.38c5.36.13,10.72.2,16.08.33a33.71,33.71,0,0,1,6.21.33c6.77,1.46,13.63.94,20.45,1.19s13.76.22,20.63.27q6.6.06,13.2,0a9.08,9.08,0,0,0,2-.55,5.17,5.17,0,0,1,1.27-.24q12.54.16,25.08.38a5.62,5.62,0,0,1,1.5.53,4.38,4.38,0,0,0,1.22.34q12.18.21,24.36.34a4.67,4.67,0,0,0,1.39-.44,4.38,4.38,0,0,1,1.22-.34c8.48.08,17,.21,25.44.25,1.1,0,1.63.76,2.22,1.29a5.65,5.65,0,0,1,2.18,5c-.13,1.22,0,2.47-.07,3.71a2.19,2.19,0,0,1-1.68,2.45c-1.13.36-2.09.79-3.25.37a6.68,6.68,0,0,0-1.64-.53c-2.39-.17-4.79-.23-7.18-.4a6.4,6.4,0,0,1-1.55-.59,3.27,3.27,0,0,0-1-.28c-2.92-.06-5.84-.12-8.76-.12-.41,0-.82.33-1.24.48a4.89,4.89,0,0,1-1.22.32c-2,.09-4.06-.3-5.84.29-3.07,1-6.08.26-9.11.44a7,7,0,0,1-2-.53,4.84,4.84,0,0,0-1.05-.19c-4.59-.17-9.19-.3-13.78-.51a7.88,7.88,0,0,1-1.91-.66,3.32,3.32,0,0,0-1-.21q-13.8-.23-27.59-.41a4.4,4.4,0,0,0-1.27.45,4.19,4.19,0,0,1-1.2.35q-21.78-.3-43.55-.65c-.28,0-.68,0-.81-.11-1-1.23-2.43-.8-3.67-.85-3.12-.12-6.24-.12-9.36-.22a6,6,0,0,1-1.37-.51,5,5,0,0,0-1.44-.38c-6.84-.15-13.67-.27-20.51-.41-.82,0-1.68.16-2.26-.72-.14-.21-.67-.2-1-.21-9.83-.15-19.67-.23-29.51-.41-.49,0-1,.37-1.48.52a4.28,4.28,0,0,1-1.35.28c-7.6,0-15.2-.15-22.8-.18a6.7,6.7,0,0,0-1.8.57,5,5,0,0,1-1.26.22c-4.88,0-9.76-.1-14.64-.1a9,9,0,0,0-1.93.58,5.57,5.57,0,0,1-1.51.22l-37.44-.54c-2.48,0-5,0-7.44-.15a7.94,7.94,0,0,1-1.79-.62,4.69,4.69,0,0,0-1.25-.28L35.85,9.76Q24.1,9.58,12.34,9.33a4.48,4.48,0,0,1-1.4-.48c-.11,0-.17-.2-.27-.23A45.11,45.11,0,0,0,6,7.41a41.62,41.62,0,0,0-4.19-.12A14.12,14.12,0,0,1,0,7Z"/></g></g></svg>