<svg xmlns="http://www.w3.org/2000/svg" xmlns:xlink="http://www.w3.org/1999/xlink" viewBox="0 0 389.02 15.28"><defs><style>.cls-1{fill:url(#Dégradé_sans_nom_8);}</style><linearGradient id="Dégradé_sans_nom_8" x1="-437.99" y1="73.06" x2="-48.95" y2="73.06" gradientTransform="matrix(-1, 0.01, 0.01, 1, -49.49, -63.02)" gradientUnits="userSpaceOnUse"><stop offset="0" stop-color="#379547"/><stop offset="1" stop-color="#b4d382"/></linearGradient></defs><g id="Calque_2" data-name="Calque 2"><g id="Calque_1-2" data-name="Calque 1"><path class="cls-1" d="M.09,7.34c2.28.71,4.72,1.89,7,1,2.6-1.07,5.17-.63,7.75-.89A3.33,3.33,0,0,1,16,7.8c-.38.27-.74.56-1.13.81a6.82,6.82,0,0,1-1.19.64,3.91,3.91,0,0,1-1.33.35c-3,.07-6,.06-9,.15-.56,0-1.08.75-1.66.63s-1.13.4-1.7.6l0,.32a5,5,0,0,0,1.11.27q7.62,0,15.23-.14c.28,0,.67,0,.81-.13.9-1.06,2.11-.76,3.24-.77,3.56,0,7.12-.08,10.68-.06a6.79,6.79,0,0,1,1.59.54A4.59,4.59,0,0,0,34,11.3c3.72,0,7.44,0,11.16,0a7.17,7.17,0,0,1,1.69.57,4.11,4.11,0,0,0,1.24.27c2.44,0,4.88,0,7.32.06a5.55,5.55,0,0,1,1.47.53,3.91,3.91,0,0,0,1.21.33q16.68-.09,33.36-.24c.49,0,1-.41,1.45-.58A3.67,3.67,0,0,1,94.15,12c7.35,0,14.71,0,22.07-.06,1.07,0,2.11-.27,3,.68.2.21.77.1,1.17.1,5.52,0,11-.08,16.56-.07,3.79,0,7.59.08,11.39.15a3.82,3.82,0,0,1,1,.23,10.21,10.21,0,0,0,2,.55c1.71.09,3.43,0,5.14.07.93,0,1.91-.18,2.67.7.21.25.83.18,1.26.18,6.24,0,12.48-.06,18.72,0a8.05,8.05,0,0,1,1.92.61,3.35,3.35,0,0,0,1,.23q19.8-.13,39.6-.3c.42,0,.82-.36,1.24-.49a5.54,5.54,0,0,1,1.57-.38c5.36-.08,10.72-.12,16.08-.2a32.87,32.87,0,0,0,6.21-.29c6.78-1.41,13.64-.84,20.46-1s13.75-.12,20.63-.12q6.6,0,13.2.14a8.54,8.54,0,0,1,2,.57,4.74,4.74,0,0,0,1.28.24q12.54-.06,25.07-.19a5.5,5.5,0,0,0,1.51-.51,4,4,0,0,1,1.23-.33q12.17-.12,24.35-.16a4.7,4.7,0,0,1,1.39.45,4.32,4.32,0,0,0,1.22.35c8.48,0,17-.08,25.44,0,1.1,0,1.63-.76,2.23-1.28a5.68,5.68,0,0,0,2.22-5c-.12-1.23,0-2.48-.05-3.72A2.18,2.18,0,0,0,387.28.56c-1.12-.37-2.08-.8-3.25-.4a6.25,6.25,0,0,1-1.64.52c-2.39.16-4.79.19-7.18.35a6.8,6.8,0,0,0-1.55.58,3.39,3.39,0,0,1-1,.27c-2.92,0-5.84.07-8.76.05-.41,0-.82-.33-1.24-.48a4.35,4.35,0,0,0-1.21-.33c-2-.11-4.06.26-5.84-.34-3.06-1-6.08-.31-9.1-.51a7.21,7.21,0,0,0-2,.52,4.63,4.63,0,0,1-1,.18c-4.6.14-9.2.23-13.79.41a8,8,0,0,0-1.91.64,3.32,3.32,0,0,1-1,.21q-13.8.12-27.6.19A4,4,0,0,1,297.88,2a3.92,3.92,0,0,0-1.2-.36q-21.78.13-43.55.32c-.28,0-.68-.05-.81.11-1,1.22-2.43.77-3.68.81-3.12.11-6.24.08-9.36.16a5.41,5.41,0,0,0-1.37.5,5.36,5.36,0,0,1-1.44.37c-6.84.1-13.68.17-20.52.25-.82,0-1.67-.17-2.27.71-.13.2-.66.19-1,.19-9.84.08-19.68.09-29.52.2-.49,0-1-.39-1.47-.54a4.6,4.6,0,0,0-1.35-.29c-7.6,0-15.2,0-22.8,0a7.11,7.11,0,0,1-1.8-.58,4.59,4.59,0,0,0-1.26-.23c-4.88,0-9.76,0-14.64,0A8.69,8.69,0,0,1,137.9,3a5.51,5.51,0,0,0-1.5-.23Q117.68,2.87,99,3c-2.48,0-5,0-7.44.09a8,8,0,0,0-1.81.61A4.18,4.18,0,0,1,88.46,4l-52.55.43q-11.76.09-23.52.24a4.48,4.48,0,0,0-1.4.48c-.11,0-.18.19-.28.22A45,45,0,0,1,6,6.54a41.73,41.73,0,0,1-4.19.09,12.29,12.29,0,0,0-1.8.3Z"/></g></g></svg>