<svg xmlns="http://www.w3.org/2000/svg" xmlns:xlink="http://www.w3.org/1999/xlink" viewBox="0 0 59.59 64.92"><defs><style>.cls-1{fill:url(#Dégradé_sans_nom_7);}</style><linearGradient id="Dégradé_sans_nom_7" y1="32.46" x2="59.59" y2="32.46" gradientUnits="userSpaceOnUse"><stop offset="0.51" stop-color="#f65e64"/><stop offset="1" stop-color="#fa9070"/></linearGradient></defs><g id="Calque_2" data-name="Calque 2"><g id="Calque_1-2" data-name="Calque 1"><path class="cls-1" d="M14.21,50.05c0-11.77.17-22.9-.09-34-.09-3.84,1.23-5.51,4.79-6.75C32,4.73,45.23,1.26,59.59,0c0,2.58,0,4.86,0,7.14-.05,13.82-.06,27.64-.15,41.47,0,6.77-5.2,11.3-11.82,9.85-2.24-.48-5.4-2.59-5.74-4.4a8.34,8.34,0,0,1,3-7c2.71-1.79,6.45-2,10.45-3.13V14.47C46.21,16,37.36,17,28.72,18.94c-10,2.25-9.9,2.61-9.94,12.88,0,7.66-.12,15.33,0,23a8.68,8.68,0,0,1-5.06,8.43c-3.8,2-7.83,2.53-11.27-.22A7.65,7.65,0,0,1,0,57.18c.44-4.07,3.73-6.15,7.46-7C9.36,49.68,11.44,50.05,14.21,50.05ZM55.06,5.11A114.49,114.49,0,0,0,21,13.85c-1,.42-1.34,2.3-2.09,3.71,11.6-2.1,21.83-4.25,32.16-5.69C55.39,11.27,56.52,9.71,55.06,5.11Z"/></g></g></svg>