<?xml version="1.0" encoding="utf-8"?>
<!-- Generator: Adobe Illustrator 24.1.0, SVG Export Plug-In . SVG Version: 6.00 Build 0)  -->
<svg version="1.1" id="Calque_1" xmlns="http://www.w3.org/2000/svg" xmlns:xlink="http://www.w3.org/1999/xlink" x="0px" y="0px"
	 viewBox="0 0 288.7 9.3" style="enable-background:new 0 0 288.7 9.3;" xml:space="preserve">
<style type="text/css">
	.st0{fill:#451F23;}
</style>
<g id="Calque_2_1_">
	<g id="Calque_1-2">
		<path class="st0" d="M288.7,8c-2.6,0.5-4.3,1.1-6,1.1c-23.1,0.1-46.3,0.1-69.4,0.1C171.7,9,130,9,88.4,8.4
			C61.8,8.1,35.2,6.8,8.6,5.9c-1.5,0.1-3-0.1-4.4-0.5C2.7,4.7,1.3,3.8,0,2.8c1.3-0.9,2.7-2.6,4-2.6C10.8-0.1,17.6,0,24.4,0
			c33.6,0.1,67.3,0,100.9,0.3c49.4,0.5,98.9,1.1,148.3,2C278.7,2.5,284.4,1.7,288.7,8z"/>
	</g>
</g>
</svg>
