<svg xmlns="http://www.w3.org/2000/svg" xmlns:xlink="http://www.w3.org/1999/xlink" viewBox="0 0 388.94 17.88"><defs><style>.cls-1{fill:url(#Dégradé_sans_nom_8);}</style><linearGradient id="Dégradé_sans_nom_8" x1="-266.29" y1="73.48" x2="122.75" y2="73.48" gradientTransform="translate(267.72 -61.31) rotate(1.15)" gradientUnits="userSpaceOnUse"><stop offset="0" stop-color="#379547"/><stop offset="1" stop-color="#b4d382"/></linearGradient></defs><g id="Calque_2" data-name="Calque 2"><g id="Calque_1-2" data-name="Calque 1"><path class="cls-1" d="M388.89,12.28c-2.28.68-4.73,1.83-7,.87-2.59-1.1-5.17-.7-7.74-1a3.3,3.3,0,0,0-1.23.36c.38.28.73.58,1.12.83a7.23,7.23,0,0,0,1.18.66,4.19,4.19,0,0,0,1.33.37c3,.1,6,.13,9,.26.56,0,1.07.77,1.65.65s1.14.42,1.7.63v.31a4.47,4.47,0,0,1-1.11.26l-15.23-.33c-.28,0-.67,0-.8-.15-.89-1.07-2.11-.78-3.23-.81-3.56-.09-7.12-.17-10.68-.19a6,6,0,0,0-1.6.52,5.47,5.47,0,0,1-1.36.27c-3.72,0-7.44-.12-11.16-.12a6.86,6.86,0,0,0-1.7.55,4.5,4.5,0,0,1-1.24.26c-2.44,0-4.88-.07-7.32,0A5.42,5.42,0,0,0,332,17a3.85,3.85,0,0,1-1.22.31q-16.68-.3-33.35-.67c-.48,0-.95-.41-1.44-.6a3.87,3.87,0,0,0-1.22-.32c-7.36-.13-14.72-.2-22.07-.35-1.08,0-2.11-.29-3,.64-.19.21-.76.09-1.16.08-5.52-.09-11-.21-16.56-.28-3.8,0-7.59,0-11.39,0a4.1,4.1,0,0,0-1,.21,9.75,9.75,0,0,1-2,.53c-1.71.07-3.43,0-5.15,0-.92,0-1.9-.2-2.67.67-.21.24-.83.16-1.26.16-6.24-.09-12.48-.22-18.72-.28a7.62,7.62,0,0,0-1.93.59,3.31,3.31,0,0,1-1,.21q-19.8-.37-39.6-.81c-.41,0-.81-.36-1.23-.5a5.88,5.88,0,0,0-1.56-.4c-5.36-.15-10.72-.26-16.08-.41a33.71,33.71,0,0,1-6.21-.36c-6.76-1.5-13.62-1-20.44-1.3s-13.75-.29-20.63-.38q-6.6-.09-13.19,0a8.59,8.59,0,0,0-2,.54,4.72,4.72,0,0,1-1.27.23Q72.07,14.24,59.53,14a6.17,6.17,0,0,1-1.5-.54,4.23,4.23,0,0,0-1.22-.35q-12.18-.26-24.35-.47a4.82,4.82,0,0,0-1.4.44,4.18,4.18,0,0,1-1.22.33c-8.48-.12-16.95-.3-25.43-.38-1.1,0-1.63-.77-2.22-1.31A5.64,5.64,0,0,1,0,6.69C.17,5.46.09,4.21.13,3A2.19,2.19,0,0,1,1.82.53C3,.18,3.92-.25,5.08.18A6.64,6.64,0,0,0,6.71.72C9.1.9,11.5,1,13.89,1.16a6.54,6.54,0,0,1,1.54.6,3.33,3.33,0,0,0,1,.28c2.92.08,5.84.15,8.76.16a4.58,4.58,0,0,0,1.24-.46,4.49,4.49,0,0,1,1.22-.32c2-.08,4.05.32,5.84-.26,3.07-1,6.08-.23,9.11-.39a7.05,7.05,0,0,1,2,.54,4.75,4.75,0,0,0,1.05.2c4.59.19,9.19.34,13.78.58a7.58,7.58,0,0,1,1.9.67,3.65,3.65,0,0,0,1,.22q13.78.3,27.59.55a4.69,4.69,0,0,0,1.27-.44,4.19,4.19,0,0,1,1.2-.35q21.78.42,43.55.88c.28,0,.68,0,.81.12,1,1.23,2.42.81,3.67.87,3.11.14,6.23.15,9.35.27a5.42,5.42,0,0,1,1.36.52,5.12,5.12,0,0,0,1.44.38c6.84.19,13.68.35,20.52.52.81,0,1.67-.15,2.25.74.13.2.66.2,1,.2,9.84.21,19.68.35,29.52.58.49,0,1-.37,1.48-.52A4.56,4.56,0,0,1,208.71,7c7.6.09,15.2.23,22.8.31a7.78,7.78,0,0,0,1.8-.56,4.29,4.29,0,0,1,1.27-.22c4.87.05,9.75.15,14.63.17a8.53,8.53,0,0,0,1.94-.57A6,6,0,0,1,252.66,6l37.43.74c2.48,0,5,.07,7.44.19a7.81,7.81,0,0,1,1.79.63,4.28,4.28,0,0,0,1.25.29l52.55,1.1q11.76.24,23.51.55a4.51,4.51,0,0,1,1.4.49c.1,0,.17.2.27.23A42.65,42.65,0,0,0,383,11.4a41.59,41.59,0,0,0,4.19.15,14,14,0,0,1,1.79.32Z"/></g></g></svg>