<?xml version="1.0" encoding="utf-8"?>
<!-- Generator: Adobe Illustrator 24.1.0, SVG Export Plug-In . SVG Version: 6.00 Build 0)  -->
<svg version="1.1" id="Calque_1" xmlns="http://www.w3.org/2000/svg" xmlns:xlink="http://www.w3.org/1999/xlink" x="0px" y="0px"
	 viewBox="0 0 285.2 9.1" style="enable-background:new 0 0 285.2 9.1;" xml:space="preserve">
<style type="text/css">
	.st0{fill:#451F23;}
</style>
<g id="Calque_2_1_">
	<g id="Calque_1-2">
		<path class="st0" d="M0,8.4C-0.2,3,1.8,0.4,7.3,0.2c8.8-0.3,17.6-0.2,26.5,0C63.4,0.6,93,1.6,122.6,1.7c33,0.1,65.9-0.9,98.9-0.8
			c19.8,0,39.6,1.1,59.4,1.9c1.5,0.1,2.9,1.5,4.3,2.2c-1.5,0.8-2.9,2.3-4.5,2.4c-33.1,3.2-66.2,1-99.3,0.4
			c-19.6-0.3-39.3-0.2-58.9-0.1C85.3,7.9,48,8.1,10.7,8.3C7.2,8.4,3.8,8.4,0,8.4z"/>
	</g>
</g>
</svg>
